<?xml version="1.0" encoding="UTF-8" standalone="no"?>
<!DOCTYPE svg PUBLIC "-//W3C//DTD SVG 1.1//EN"
 "http://www.w3.org/Graphics/SVG/1.1/DTD/svg11.dtd">
<!-- Generated by graphviz version 2.47.3 (20210619.1520)
 -->
<!-- Pages: 1 -->
<svg width="716pt" height="373pt"
 viewBox="0.00 0.00 715.50 373.00" xmlns="http://www.w3.org/2000/svg" xmlns:xlink="http://www.w3.org/1999/xlink">
<g id="graph0" class="graph" transform="scale(1 1) rotate(0) translate(4 369)">
<polygon fill="white" stroke="transparent" points="-4,4 -4,-369 711.5,-369 711.5,4 -4,4"/>
<!-- dLeft -->
<g id="node1" class="node">
<title>dLeft</title>
<polygon fill="lightgray" stroke="black" points="131.5,-292.42 95.5,-292.42 95.5,-274.42 131.5,-274.42 131.5,-292.42"/>
<text text-anchor="middle" x="113.5" y="-281.22" font-family="Times New Roman,serif" font-size="9.00">dLeft</text>
</g>
<!-- Accelerate/Brake -->
<g id="node12" class="node">
<title>Accelerate/Brake</title>
<ellipse fill="lightblue" stroke="black" cx="286.5" cy="-165.4" rx="54.39" ry="54.39"/>
<text text-anchor="middle" x="286.5" y="-163.2" font-family="Times New Roman,serif" font-size="9.00">Accelerate/Brake</text>
</g>
<!-- dLeft&#45;&gt;Accelerate/Brake -->
<g id="edge14" class="edge">
<title>dLeft&#45;&gt;Accelerate/Brake</title>
<path fill="none" stroke="red" stroke-width="0.19" stroke-dasharray="1,5" d="M129.73,-274.4C151.7,-263.28 191.81,-242.01 223.5,-219.85 228.39,-216.42 233.36,-212.7 238.25,-208.86"/>
<polygon fill="red" stroke="red" stroke-width="0.19" points="240.78,-211.33 246.38,-202.34 236.39,-205.87 240.78,-211.33"/>
</g>
<!-- Right/Left -->
<g id="node13" class="node">
<title>Right/Left</title>
<ellipse fill="lightblue" stroke="black" cx="368.5" cy="-37.48" rx="37.45" ry="37.45"/>
<text text-anchor="middle" x="368.5" y="-35.28" font-family="Times New Roman,serif" font-size="9.00">Right/Left</text>
</g>
<!-- dLeft&#45;&gt;Right/Left -->
<g id="edge13" class="edge">
<title>dLeft&#45;&gt;Right/Left</title>
<path fill="none" stroke="green" stroke-width="0.12" d="M106.64,-274.19C97.65,-262.82 82.36,-241.27 76.5,-219.85 63.73,-173.16 46.68,-149.08 76.5,-110.95 106.35,-72.79 246.29,-51.88 321.08,-43.25"/>
<polygon fill="green" stroke="green" stroke-width="0.12" points="321.64,-46.71 331.18,-42.12 320.85,-39.76 321.64,-46.71"/>
</g>
<!-- 11166 -->
<g id="node17" class="node">
<title>11166</title>
<ellipse fill="white" stroke="black" cx="113.5" cy="-165.4" rx="27.65" ry="27.65"/>
<text text-anchor="middle" x="113.5" y="-163.2" font-family="Times New Roman,serif" font-size="9.00">11166</text>
</g>
<!-- dLeft&#45;&gt;11166 -->
<g id="edge17" class="edge">
<title>dLeft&#45;&gt;11166</title>
<path fill="none" stroke="green" stroke-width="0.2" d="M113.5,-274.08C113.5,-259.53 113.5,-228.69 113.5,-203.73"/>
<polygon fill="green" stroke="green" stroke-width="0.2" points="117,-203.46 113.5,-193.46 110,-203.46 117,-203.46"/>
</g>
<!-- dForward -->
<g id="node2" class="node">
<title>dForward</title>
<polygon fill="lightgray" stroke="black" points="591.5,-365 539.5,-365 539.5,-347 591.5,-347 591.5,-365"/>
<text text-anchor="middle" x="565.5" y="-353.8" font-family="Times New Roman,serif" font-size="9.00">dForward</text>
</g>
<!-- dRight -->
<g id="node3" class="node">
<title>dRight</title>
<polygon fill="lightgray" stroke="black" points="651,-365 610,-365 610,-347 651,-347 651,-365"/>
<text text-anchor="middle" x="630.5" y="-353.8" font-family="Times New Roman,serif" font-size="9.00">dRight</text>
</g>
<!-- Speed -->
<g id="node4" class="node">
<title>Speed</title>
<polygon fill="lightgray" stroke="black" points="707.5,-365 669.5,-365 669.5,-347 707.5,-347 707.5,-365"/>
<text text-anchor="middle" x="688.5" y="-353.8" font-family="Times New Roman,serif" font-size="9.00">Speed</text>
</g>
<!-- Heading -->
<g id="node5" class="node">
<title>Heading</title>
<polygon fill="lightgray" stroke="black" points="316.5,-292.42 270.5,-292.42 270.5,-274.42 316.5,-274.42 316.5,-292.42"/>
<text text-anchor="middle" x="293.5" y="-281.22" font-family="Times New Roman,serif" font-size="9.00">Heading</text>
</g>
<!-- Heading&#45;&gt;Accelerate/Brake -->
<g id="edge3" class="edge">
<title>Heading&#45;&gt;Accelerate/Brake</title>
<path fill="none" stroke="green" stroke-width="0.29" stroke-dasharray="1,5" d="M293,-274.08C292.41,-264.44 291.4,-247.64 290.35,-230.14"/>
<polygon fill="green" stroke="green" stroke-width="0.29" points="293.82,-229.57 289.72,-219.8 286.83,-229.99 293.82,-229.57"/>
</g>
<!-- &#45;6 -->
<g id="node6" class="node">
<title>&#45;6</title>
<polygon fill="lightgray" stroke="black" points="365.5,-292.42 341.5,-292.42 341.5,-274.42 365.5,-274.42 365.5,-292.42"/>
<text text-anchor="middle" x="353.5" y="-281.22" font-family="Times New Roman,serif" font-size="9.00">&#45;6</text>
</g>
<!-- &#45;6&#45;&gt;Accelerate/Brake -->
<g id="edge2" class="edge">
<title>&#45;6&#45;&gt;Accelerate/Brake</title>
<path fill="none" stroke="green" stroke-width="0.31" stroke-dasharray="1,5" d="M348.68,-274.08C342.22,-262.9 330.2,-242.08 318.44,-221.72"/>
<polygon fill="green" stroke="green" stroke-width="0.31" points="321.47,-219.95 313.43,-213.04 315.4,-223.45 321.47,-219.95"/>
</g>
<!-- &#45;6&#45;&gt;Right/Left -->
<g id="edge6" class="edge">
<title>&#45;6&#45;&gt;Right/Left</title>
<path fill="none" stroke="red" stroke-width="1.19" stroke-dasharray="1,5" d="M354,-274.31C355.78,-245.31 361.93,-145.39 365.62,-85.31"/>
<polygon fill="red" stroke="red" stroke-width="1.19" points="369.12,-85.5 366.24,-75.3 362.13,-85.07 369.12,-85.5"/>
</g>
<!-- &#45;7 -->
<g id="node7" class="node">
<title>&#45;7</title>
<polygon fill="lightgray" stroke="black" points="252.5,-292.42 228.5,-292.42 228.5,-274.42 252.5,-274.42 252.5,-292.42"/>
<text text-anchor="middle" x="240.5" y="-281.22" font-family="Times New Roman,serif" font-size="9.00">&#45;7</text>
</g>
<!-- &#45;7&#45;&gt;Accelerate/Brake -->
<g id="edge15" class="edge">
<title>&#45;7&#45;&gt;Accelerate/Brake</title>
<path fill="none" stroke="red" stroke-width="0.35" d="M243.81,-274.08C247.95,-263.63 255.43,-244.78 262.97,-225.74"/>
<polygon fill="red" stroke="red" stroke-width="0.35" points="266.24,-227 266.67,-216.41 259.73,-224.42 266.24,-227"/>
</g>
<!-- &#45;8 -->
<g id="node8" class="node">
<title>&#45;8</title>
<polygon fill="lightgray" stroke="black" points="200.5,-292.42 176.5,-292.42 176.5,-274.42 200.5,-274.42 200.5,-292.42"/>
<text text-anchor="middle" x="188.5" y="-281.22" font-family="Times New Roman,serif" font-size="9.00">&#45;8</text>
</g>
<!-- &#45;8&#45;&gt;Accelerate/Brake -->
<g id="edge5" class="edge">
<title>&#45;8&#45;&gt;Accelerate/Brake</title>
<path fill="none" stroke="red" stroke-width="0.26" d="M195.55,-274.08C205.99,-261.72 226.37,-237.59 245.2,-215.3"/>
<polygon fill="red" stroke="red" stroke-width="0.26" points="247.99,-217.41 251.77,-207.52 242.65,-212.9 247.99,-217.41"/>
</g>
<!-- 10415 -->
<g id="node15" class="node">
<title>10415</title>
<ellipse fill="white" stroke="black" cx="186.5" cy="-165.4" rx="27.65" ry="27.65"/>
<text text-anchor="middle" x="186.5" y="-163.2" font-family="Times New Roman,serif" font-size="9.00">10415</text>
</g>
<!-- &#45;8&#45;&gt;10415 -->
<g id="edge7" class="edge">
<title>&#45;8&#45;&gt;10415</title>
<path fill="none" stroke="green" stroke-width="0.11" d="M188.36,-274.08C188.11,-259.53 187.57,-228.69 187.14,-203.73"/>
<polygon fill="green" stroke="green" stroke-width="0.11" points="190.64,-203.39 186.97,-193.46 183.64,-203.52 190.64,-203.39"/>
</g>
<!-- &#45;9 -->
<g id="node9" class="node">
<title>&#45;9</title>
<polygon fill="lightgray" stroke="black" points="468.5,-365 444.5,-365 444.5,-347 468.5,-347 468.5,-365"/>
<text text-anchor="middle" x="456.5" y="-353.8" font-family="Times New Roman,serif" font-size="9.00">&#45;9</text>
</g>
<!-- &#45;9&#45;&gt;Right/Left -->
<g id="edge1" class="edge">
<title>&#45;9&#45;&gt;Right/Left</title>
<path fill="none" stroke="green" stroke-width="0.28" stroke-dasharray="1,5" d="M454.24,-346.86C444.08,-310.33 402.28,-159.99 381.03,-83.55"/>
<polygon fill="green" stroke="green" stroke-width="0.28" points="384.35,-82.41 378.3,-73.72 377.6,-84.29 384.35,-82.41"/>
</g>
<!-- 10917 -->
<g id="node14" class="node">
<title>10917</title>
<ellipse fill="white" stroke="black" cx="481.5" cy="-283.42" rx="27.65" ry="27.65"/>
<text text-anchor="middle" x="481.5" y="-281.22" font-family="Times New Roman,serif" font-size="9.00">10917</text>
</g>
<!-- &#45;9&#45;&gt;10917 -->
<g id="edge16" class="edge">
<title>&#45;9&#45;&gt;10917</title>
<path fill="none" stroke="red" stroke-width="0.23" d="M459.37,-346.91C461.82,-339.98 465.54,-329.49 469.22,-319.09"/>
<polygon fill="red" stroke="red" stroke-width="0.23" points="472.52,-320.25 472.56,-309.65 465.93,-317.91 472.52,-320.25"/>
</g>
<!-- &#45;10 -->
<g id="node10" class="node">
<title>&#45;10</title>
<polygon fill="lightgray" stroke="black" points="29,-174.4 0,-174.4 0,-156.4 29,-156.4 29,-174.4"/>
<text text-anchor="middle" x="14.5" y="-163.2" font-family="Times New Roman,serif" font-size="9.00">&#45;10</text>
</g>
<!-- &#45;10&#45;&gt;Right/Left -->
<g id="edge4" class="edge">
<title>&#45;10&#45;&gt;Right/Left</title>
<path fill="none" stroke="red" stroke-width="0.17" d="M16.64,-156.09C20.16,-144.17 28.33,-122.4 43.5,-110.95 86.89,-78.21 241.91,-54.46 321.14,-44.16"/>
<polygon fill="red" stroke="red" stroke-width="0.17" points="321.86,-47.6 331.34,-42.86 320.97,-40.66 321.86,-47.6"/>
</g>
<!-- &#45;11 -->
<g id="node11" class="node">
<title>&#45;11</title>
<polygon fill="lightgray" stroke="black" points="521,-365 492,-365 492,-347 521,-347 521,-365"/>
<text text-anchor="middle" x="506.5" y="-353.8" font-family="Times New Roman,serif" font-size="9.00">&#45;11</text>
</g>
<!-- &#45;11&#45;&gt;Right/Left -->
<g id="edge10" class="edge">
<title>&#45;11&#45;&gt;Right/Left</title>
<path fill="none" stroke="green" stroke-width="0.61" d="M510.15,-346.57C523.88,-313.41 569.21,-189.96 519.5,-110.95 496.88,-75 450.9,-56.48 415.6,-47.2"/>
<polygon fill="green" stroke="green" stroke-width="0.61" points="416.03,-43.71 405.49,-44.72 414.36,-50.5 416.03,-43.71"/>
</g>
<!-- &#45;11&#45;&gt;10917 -->
<g id="edge11" class="edge">
<title>&#45;11&#45;&gt;10917</title>
<path fill="none" stroke="red" stroke-width="0.73" stroke-dasharray="1,5" d="M503.63,-346.91C501.18,-339.98 497.46,-329.49 493.78,-319.09"/>
<polygon fill="red" stroke="red" stroke-width="0.73" points="497.07,-317.91 490.44,-309.65 490.48,-320.25 497.07,-317.91"/>
</g>
<!-- 10917&#45;&gt;Right/Left -->
<g id="edge12" class="edge">
<title>10917&#45;&gt;Right/Left</title>
<path fill="none" stroke="green" stroke-width="0.46" stroke-dasharray="1,5" d="M492.67,-258.04C506.96,-222.92 526.79,-157.24 499.5,-110.95 481.29,-80.08 444.69,-61.43 414.79,-50.8"/>
<polygon fill="green" stroke="green" stroke-width="0.46" points="415.53,-47.36 404.94,-47.5 413.31,-54 415.53,-47.36"/>
</g>
<!-- 10716 -->
<g id="node16" class="node">
<title>10716</title>
<ellipse fill="white" stroke="black" cx="462.5" cy="-165.4" rx="27.65" ry="27.65"/>
<text text-anchor="middle" x="462.5" y="-163.2" font-family="Times New Roman,serif" font-size="9.00">10716</text>
</g>
<!-- 10917&#45;&gt;10716 -->
<g id="edge19" class="edge">
<title>10917&#45;&gt;10716</title>
<path fill="none" stroke="green" stroke-width="0.24" d="M477.19,-256.1C474.63,-240.48 471.35,-220.45 468.54,-203.28"/>
<polygon fill="green" stroke="green" stroke-width="0.24" points="471.93,-202.33 466.86,-193.03 465.02,-203.46 471.93,-202.33"/>
</g>
<!-- 10415&#45;&gt;Right/Left -->
<g id="edge8" class="edge">
<title>10415&#45;&gt;Right/Left</title>
<path fill="none" stroke="red" stroke-width="0.19" d="M199.22,-140.82C205.53,-130.7 213.87,-119.31 223.5,-110.95 252.95,-85.41 292.98,-66.29 323.52,-54.12"/>
<polygon fill="red" stroke="red" stroke-width="0.19" points="325.02,-57.3 333.07,-50.42 322.49,-50.77 325.02,-57.3"/>
</g>
<!-- 10716&#45;&gt;Right/Left -->
<g id="edge9" class="edge">
<title>10716&#45;&gt;Right/Left</title>
<path fill="none" stroke="red" stroke-width="0.24" stroke-dasharray="1,5" d="M446.34,-142.75C432.75,-124.55 413,-98.09 396.79,-76.38"/>
<polygon fill="red" stroke="red" stroke-width="0.24" points="399.56,-74.24 390.77,-68.32 393.95,-78.42 399.56,-74.24"/>
</g>
<!-- 11166&#45;&gt;Right/Left -->
<g id="edge18" class="edge">
<title>11166&#45;&gt;Right/Left</title>
<path fill="none" stroke="green" stroke-width="0.23" d="M125.22,-140.15C131.23,-129.9 139.43,-118.59 149.5,-110.95 200.78,-72.06 273.98,-53.44 321.37,-44.96"/>
<polygon fill="green" stroke="green" stroke-width="0.23" points="322.1,-48.39 331.37,-43.26 320.92,-41.49 322.1,-48.39"/>
</g>
</g>
</svg>
