<?xml version="1.0" encoding="UTF-8" standalone="no"?>
<!DOCTYPE svg PUBLIC "-//W3C//DTD SVG 1.1//EN"
 "http://www.w3.org/Graphics/SVG/1.1/DTD/svg11.dtd">
<!-- Generated by graphviz version 2.47.3 (20210619.1520)
 -->
<!-- Pages: 1 -->
<svg width="359pt" height="262pt"
 viewBox="0.00 0.00 359.40 262.05" xmlns="http://www.w3.org/2000/svg" xmlns:xlink="http://www.w3.org/1999/xlink">
<g id="graph0" class="graph" transform="scale(1 1) rotate(0) translate(4 258.05)">
<polygon fill="white" stroke="transparent" points="-4,4 -4,-258.05 355.4,-258.05 355.4,4 -4,4"/>
<!-- dLeft -->
<g id="node1" class="node">
<title>dLeft</title>
<polygon fill="lightgray" stroke="black" points="104.58,-181.47 68.58,-181.47 68.58,-163.47 104.58,-163.47 104.58,-181.47"/>
<text text-anchor="middle" x="86.58" y="-170.27" font-family="Times New Roman,serif" font-size="9.00">dLeft</text>
</g>
<!-- Right/Left -->
<g id="node8" class="node">
<title>Right/Left</title>
<ellipse fill="lightblue" stroke="black" cx="122.58" cy="-54.45" rx="37.45" ry="37.45"/>
<text text-anchor="middle" x="122.58" y="-52.25" font-family="Times New Roman,serif" font-size="9.00">Right/Left</text>
</g>
<!-- dLeft&#45;&gt;Right/Left -->
<g id="edge3" class="edge">
<title>dLeft&#45;&gt;Right/Left</title>
<path fill="none" stroke="green" stroke-width="1.82" d="M89.17,-163.13C93.24,-149.99 101.44,-123.56 108.7,-100.18"/>
<polygon fill="green" stroke="green" stroke-width="1.82" points="112.11,-100.98 111.74,-90.39 105.43,-98.9 112.11,-100.98"/>
</g>
<!-- dForward -->
<g id="node2" class="node">
<title>dForward</title>
<polygon fill="lightgray" stroke="black" points="333.58,-254.05 281.58,-254.05 281.58,-236.05 333.58,-236.05 333.58,-254.05"/>
<text text-anchor="middle" x="307.58" y="-242.85" font-family="Times New Roman,serif" font-size="9.00">dForward</text>
</g>
<!-- Accelerate/Brake -->
<g id="node7" class="node">
<title>Accelerate/Brake</title>
<ellipse fill="lightblue" stroke="black" cx="251.58" cy="-54.45" rx="54.39" ry="54.39"/>
<text text-anchor="middle" x="251.58" y="-52.25" font-family="Times New Roman,serif" font-size="9.00">Accelerate/Brake</text>
</g>
<!-- dForward&#45;&gt;Accelerate/Brake -->
<g id="edge6" class="edge">
<title>dForward&#45;&gt;Accelerate/Brake</title>
<path fill="none" stroke="green" stroke-width="0.22" d="M317.66,-235.85C326.67,-227.82 339.24,-214.68 344.58,-200.05 352.97,-177.02 354.18,-167.45 344.58,-144.89 335.98,-124.7 320.34,-106.86 304.31,-92.54"/>
<polygon fill="green" stroke="green" stroke-width="0.22" points="306.31,-89.64 296.44,-85.79 301.76,-94.95 306.31,-89.64"/>
</g>
<!-- 38132 -->
<g id="node10" class="node">
<title>38132</title>
<ellipse fill="white" stroke="black" cx="251.58" cy="-172.47" rx="27.65" ry="27.65"/>
<text text-anchor="middle" x="251.58" y="-170.27" font-family="Times New Roman,serif" font-size="9.00">38132</text>
</g>
<!-- dForward&#45;&gt;38132 -->
<g id="edge9" class="edge">
<title>dForward&#45;&gt;38132</title>
<path fill="none" stroke="green" stroke-width="1.15" d="M301.15,-235.95C294.71,-227.83 284.4,-214.84 274.85,-202.8"/>
<polygon fill="green" stroke="green" stroke-width="1.15" points="277.37,-200.35 268.41,-194.69 271.89,-204.7 277.37,-200.35"/>
</g>
<!-- dRight -->
<g id="node3" class="node">
<title>dRight</title>
<polygon fill="lightgray" stroke="black" points="206.08,-181.47 165.08,-181.47 165.08,-163.47 206.08,-163.47 206.08,-181.47"/>
<text text-anchor="middle" x="185.58" y="-170.27" font-family="Times New Roman,serif" font-size="9.00">dRight</text>
</g>
<!-- dRight&#45;&gt;Accelerate/Brake -->
<g id="edge5" class="edge">
<title>dRight&#45;&gt;Accelerate/Brake</title>
<path fill="none" stroke="green" stroke-width="0.68" d="M190.32,-163.13C196.66,-151.99 208.42,-131.32 219.96,-111.04"/>
<polygon fill="green" stroke="green" stroke-width="0.68" points="223.14,-112.51 225.04,-102.09 217.06,-109.05 223.14,-112.51"/>
</g>
<!-- dRight&#45;&gt;Right/Left -->
<g id="edge1" class="edge">
<title>dRight&#45;&gt;Right/Left</title>
<path fill="none" stroke="red" stroke-width="1.14" d="M181.05,-163.13C173.57,-149.35 158.15,-120.97 145.03,-96.8"/>
<polygon fill="red" stroke="red" stroke-width="1.14" points="147.98,-94.9 140.14,-87.78 141.83,-98.24 147.98,-94.9"/>
</g>
<!-- Speed -->
<g id="node4" class="node">
<title>Speed</title>
<polygon fill="lightgray" stroke="black" points="335.58,-181.47 297.58,-181.47 297.58,-163.47 335.58,-163.47 335.58,-181.47"/>
<text text-anchor="middle" x="316.58" y="-170.27" font-family="Times New Roman,serif" font-size="9.00">Speed</text>
</g>
<!-- Speed&#45;&gt;Accelerate/Brake -->
<g id="edge7" class="edge">
<title>Speed&#45;&gt;Accelerate/Brake</title>
<path fill="none" stroke="red" stroke-width="0.13" stroke-dasharray="1,5" d="M311.9,-163.13C305.69,-152.04 294.18,-131.48 282.86,-111.28"/>
<polygon fill="red" stroke="red" stroke-width="0.13" points="285.81,-109.38 277.86,-102.37 279.7,-112.8 285.81,-109.38"/>
</g>
<!-- Heading -->
<g id="node5" class="node">
<title>Heading</title>
<polygon fill="lightgray" stroke="black" points="50.58,-181.47 4.58,-181.47 4.58,-163.47 50.58,-163.47 50.58,-181.47"/>
<text text-anchor="middle" x="27.58" y="-170.27" font-family="Times New Roman,serif" font-size="9.00">Heading</text>
</g>
<!-- Heading&#45;&gt;Right/Left -->
<g id="edge2" class="edge">
<title>Heading&#45;&gt;Right/Left</title>
<path fill="none" stroke="red" stroke-width="0.42" d="M34.41,-163.13C46.46,-148.41 72.18,-117 92.74,-91.89"/>
<polygon fill="red" stroke="red" stroke-width="0.42" points="95.58,-93.94 99.21,-83.98 90.17,-89.5 95.58,-93.94"/>
</g>
<!-- 38723 -->
<g id="node9" class="node">
<title>38723</title>
<ellipse fill="white" stroke="black" cx="27.58" cy="-54.45" rx="27.65" ry="27.65"/>
<text text-anchor="middle" x="27.58" y="-52.25" font-family="Times New Roman,serif" font-size="9.00">38723</text>
</g>
<!-- Heading&#45;&gt;38723 -->
<g id="edge11" class="edge">
<title>Heading&#45;&gt;38723</title>
<path fill="none" stroke="red" stroke-width="0.14" d="M27.58,-163.13C27.58,-148.58 27.58,-117.74 27.58,-92.78"/>
<polygon fill="red" stroke="red" stroke-width="0.14" points="31.08,-92.5 27.58,-82.5 24.08,-92.5 31.08,-92.5"/>
</g>
<!-- &#45;6 -->
<g id="node6" class="node">
<title>&#45;6</title>
<polygon fill="lightgray" stroke="black" points="146.58,-181.47 122.58,-181.47 122.58,-163.47 146.58,-163.47 146.58,-181.47"/>
<text text-anchor="middle" x="134.58" y="-170.27" font-family="Times New Roman,serif" font-size="9.00">&#45;6</text>
</g>
<!-- &#45;6&#45;&gt;Accelerate/Brake -->
<g id="edge4" class="edge">
<title>&#45;6&#45;&gt;Accelerate/Brake</title>
<path fill="none" stroke="green" stroke-width="0.48" d="M140.87,-163.34C145.14,-157.97 151,-150.84 156.58,-144.89 171.36,-129.13 188.32,-112.7 203.78,-98.28"/>
<polygon fill="green" stroke="green" stroke-width="0.48" points="206.27,-100.74 211.23,-91.38 201.51,-95.61 206.27,-100.74"/>
</g>
<!-- &#45;6&#45;&gt;Right/Left -->
<g id="edge8" class="edge">
<title>&#45;6&#45;&gt;Right/Left</title>
<path fill="none" stroke="green" stroke-width="0.22" stroke-dasharray="1,5" d="M133.71,-163.13C132.39,-150.32 129.76,-124.88 127.39,-101.95"/>
<polygon fill="green" stroke="green" stroke-width="0.22" points="130.87,-101.56 126.36,-91.98 123.9,-102.28 130.87,-101.56"/>
</g>
<!-- 38132&#45;&gt;Accelerate/Brake -->
<g id="edge10" class="edge">
<title>38132&#45;&gt;Accelerate/Brake</title>
<path fill="none" stroke="red" stroke-width="0.27" stroke-dasharray="1,5" d="M251.58,-144.85C251.58,-137.08 251.58,-128.22 251.58,-119.18"/>
<polygon fill="red" stroke="red" stroke-width="0.27" points="255.08,-118.94 251.58,-108.94 248.08,-118.94 255.08,-118.94"/>
</g>
</g>
</svg>
