<?xml version="1.0" encoding="UTF-8" standalone="no"?>
<!DOCTYPE svg PUBLIC "-//W3C//DTD SVG 1.1//EN"
 "http://www.w3.org/Graphics/SVG/1.1/DTD/svg11.dtd">
<!-- Generated by graphviz version 2.47.3 (20210619.1520)
 -->
<!-- Pages: 1 -->
<svg width="510pt" height="171pt"
 viewBox="0.00 0.00 510.00 170.89" xmlns="http://www.w3.org/2000/svg" xmlns:xlink="http://www.w3.org/1999/xlink">
<g id="graph0" class="graph" transform="scale(1 1) rotate(0) translate(4 166.89)">
<polygon fill="white" stroke="transparent" points="-4,4 -4,-166.89 506,-166.89 506,4 -4,4"/>
<!-- dLeft -->
<g id="node1" class="node">
<title>dLeft</title>
<polygon fill="lightgray" stroke="black" points="280,-162.89 244,-162.89 244,-144.89 280,-144.89 280,-162.89"/>
<text text-anchor="middle" x="262" y="-151.69" font-family="Times New Roman,serif" font-size="9.00">dLeft</text>
</g>
<!-- Accelerate/Brake -->
<g id="node11" class="node">
<title>Accelerate/Brake</title>
<ellipse fill="lightblue" stroke="black" cx="166" cy="-54.45" rx="54.39" ry="54.39"/>
<text text-anchor="middle" x="166" y="-52.25" font-family="Times New Roman,serif" font-size="9.00">Accelerate/Brake</text>
</g>
<!-- dLeft&#45;&gt;Accelerate/Brake -->
<g id="edge12" class="edge">
<title>dLeft&#45;&gt;Accelerate/Brake</title>
<path fill="none" stroke="red" stroke-width="0.34" d="M253.82,-144.59C244.22,-134.85 227.56,-117.93 211.31,-101.44"/>
<polygon fill="red" stroke="red" stroke-width="0.34" points="213.41,-98.58 203.9,-93.92 208.42,-103.5 213.41,-98.58"/>
</g>
<!-- Right/Left -->
<g id="node12" class="node">
<title>Right/Left</title>
<ellipse fill="lightblue" stroke="black" cx="276" cy="-54.45" rx="37.45" ry="37.45"/>
<text text-anchor="middle" x="276" y="-52.25" font-family="Times New Roman,serif" font-size="9.00">Right/Left</text>
</g>
<!-- dLeft&#45;&gt;Right/Left -->
<g id="edge9" class="edge">
<title>dLeft&#45;&gt;Right/Left</title>
<path fill="none" stroke="green" stroke-width="1.04" d="M263.19,-144.59C264.58,-134.9 266.99,-118.13 269.35,-101.73"/>
<polygon fill="green" stroke="green" stroke-width="1.04" points="272.84,-102.03 270.8,-91.63 265.91,-101.03 272.84,-102.03"/>
</g>
<!-- dForward -->
<g id="node2" class="node">
<title>dForward</title>
<polygon fill="lightgray" stroke="black" points="94,-162.89 42,-162.89 42,-144.89 94,-144.89 94,-162.89"/>
<text text-anchor="middle" x="68" y="-151.69" font-family="Times New Roman,serif" font-size="9.00">dForward</text>
</g>
<!-- dForward&#45;&gt;Accelerate/Brake -->
<g id="edge1" class="edge">
<title>dForward&#45;&gt;Accelerate/Brake</title>
<path fill="none" stroke="green" stroke-width="0.3" d="M76.36,-144.59C86.32,-134.68 103.75,-117.35 120.61,-100.58"/>
<polygon fill="green" stroke="green" stroke-width="0.3" points="123.15,-102.99 127.77,-93.46 118.21,-98.03 123.15,-102.99"/>
</g>
<!-- dRight -->
<g id="node3" class="node">
<title>dRight</title>
<polygon fill="lightgray" stroke="black" points="339.5,-162.89 298.5,-162.89 298.5,-144.89 339.5,-144.89 339.5,-162.89"/>
<text text-anchor="middle" x="319" y="-151.69" font-family="Times New Roman,serif" font-size="9.00">dRight</text>
</g>
<!-- dRight&#45;&gt;Accelerate/Brake -->
<g id="edge15" class="edge">
<title>dRight&#45;&gt;Accelerate/Brake</title>
<path fill="none" stroke="green" stroke-width="0.47" d="M299.54,-144.87C281.01,-136.87 252.67,-123.67 230,-108.89 224.75,-105.47 219.44,-101.68 214.25,-97.73"/>
<polygon fill="green" stroke="green" stroke-width="0.47" points="216.24,-94.85 206.2,-91.45 211.93,-100.37 216.24,-94.85"/>
</g>
<!-- dRight&#45;&gt;Right/Left -->
<g id="edge3" class="edge">
<title>dRight&#45;&gt;Right/Left</title>
<path fill="none" stroke="red" stroke-width="0.77" d="M315.33,-144.59C310.78,-134.26 302.66,-115.85 294.97,-98.44"/>
<polygon fill="red" stroke="red" stroke-width="0.77" points="298.01,-96.66 290.77,-88.93 291.61,-99.49 298.01,-96.66"/>
</g>
<!-- Speed -->
<g id="node4" class="node">
<title>Speed</title>
<polygon fill="lightgray" stroke="black" points="396,-162.89 358,-162.89 358,-144.89 396,-144.89 396,-162.89"/>
<text text-anchor="middle" x="377" y="-151.69" font-family="Times New Roman,serif" font-size="9.00">Speed</text>
</g>
<!-- Speed&#45;&gt;Accelerate/Brake -->
<g id="edge13" class="edge">
<title>Speed&#45;&gt;Accelerate/Brake</title>
<path fill="none" stroke="red" stroke-width="0.1" stroke-dasharray="1,5" d="M357.8,-147.37C319.29,-136.26 235.76,-111.99 230,-108.89 224.39,-105.88 218.83,-102.32 213.45,-98.5"/>
<polygon fill="red" stroke="red" stroke-width="0.1" points="215.28,-95.5 205.17,-92.32 211.09,-101.11 215.28,-95.5"/>
</g>
<!-- Speed&#45;&gt;Right/Left -->
<g id="edge4" class="edge">
<title>Speed&#45;&gt;Right/Left</title>
<path fill="none" stroke="green" stroke-width="0.12" d="M368.39,-144.59C355.56,-132.21 330.71,-108.23 310.01,-88.26"/>
<polygon fill="green" stroke="green" stroke-width="0.12" points="312.23,-85.54 302.61,-81.12 307.37,-90.58 312.23,-85.54"/>
</g>
<!-- Heading -->
<g id="node5" class="node">
<title>Heading</title>
<polygon fill="lightgray" stroke="black" points="460,-162.89 414,-162.89 414,-144.89 460,-144.89 460,-162.89"/>
<text text-anchor="middle" x="437" y="-151.69" font-family="Times New Roman,serif" font-size="9.00">Heading</text>
</g>
<!-- Heading&#45;&gt;Right/Left -->
<g id="edge14" class="edge">
<title>Heading&#45;&gt;Right/Left</title>
<path fill="none" stroke="red" stroke-width="0.31" d="M423.55,-144.75C400.21,-130.63 351.34,-101.05 316.24,-79.8"/>
<polygon fill="red" stroke="red" stroke-width="0.31" points="318,-76.78 307.63,-74.59 314.37,-82.77 318,-76.78"/>
</g>
<!-- &#45;6 -->
<g id="node6" class="node">
<title>&#45;6</title>
<polygon fill="lightgray" stroke="black" points="136,-162.89 112,-162.89 112,-144.89 136,-144.89 136,-162.89"/>
<text text-anchor="middle" x="124" y="-151.69" font-family="Times New Roman,serif" font-size="9.00">&#45;6</text>
</g>
<!-- &#45;6&#45;&gt;Accelerate/Brake -->
<g id="edge8" class="edge">
<title>&#45;6&#45;&gt;Accelerate/Brake</title>
<path fill="none" stroke="red" stroke-width="0.14" d="M127.58,-144.59C130.71,-137.32 135.56,-126.07 140.77,-113.98"/>
<polygon fill="red" stroke="red" stroke-width="0.14" points="144.06,-115.19 144.81,-104.62 137.63,-112.42 144.06,-115.19"/>
</g>
<!-- &#45;6&#45;&gt;Right/Left -->
<g id="edge6" class="edge">
<title>&#45;6&#45;&gt;Right/Left</title>
<path fill="none" stroke="red" stroke-width="0.43" d="M136.11,-148.18C162,-138.04 221.02,-114.63 229,-108.89 235.49,-104.23 241.7,-98.51 247.36,-92.57"/>
<polygon fill="red" stroke="red" stroke-width="0.43" points="250.11,-94.75 254.21,-84.98 244.91,-90.05 250.11,-94.75"/>
</g>
<!-- &#45;7 -->
<g id="node7" class="node">
<title>&#45;7</title>
<polygon fill="lightgray" stroke="black" points="502,-162.89 478,-162.89 478,-144.89 502,-144.89 502,-162.89"/>
<text text-anchor="middle" x="490" y="-151.69" font-family="Times New Roman,serif" font-size="9.00">&#45;7</text>
</g>
<!-- &#45;8 -->
<g id="node8" class="node">
<title>&#45;8</title>
<polygon fill="lightgray" stroke="black" points="178,-162.89 154,-162.89 154,-144.89 178,-144.89 178,-162.89"/>
<text text-anchor="middle" x="166" y="-151.69" font-family="Times New Roman,serif" font-size="9.00">&#45;8</text>
</g>
<!-- &#45;8&#45;&gt;Accelerate/Brake -->
<g id="edge2" class="edge">
<title>&#45;8&#45;&gt;Accelerate/Brake</title>
<path fill="none" stroke="green" stroke-width="0.83" stroke-dasharray="1,5" d="M166,-144.59C166,-138.44 166,-129.44 166,-119.49"/>
<polygon fill="green" stroke="green" stroke-width="0.83" points="169.5,-119.3 166,-109.3 162.5,-119.3 169.5,-119.3"/>
</g>
<!-- &#45;8&#45;&gt;Right/Left -->
<g id="edge5" class="edge">
<title>&#45;8&#45;&gt;Right/Left</title>
<path fill="none" stroke="green" stroke-width="0.23" stroke-dasharray="1,5" d="M178.24,-145.58C191.42,-137.43 212.69,-123.48 229,-108.89 234.89,-103.62 240.78,-97.65 246.29,-91.65"/>
<polygon fill="green" stroke="green" stroke-width="0.23" points="248.99,-93.88 253.04,-84.09 243.77,-89.22 248.99,-93.88"/>
</g>
<!-- &#45;9 -->
<g id="node9" class="node">
<title>&#45;9</title>
<polygon fill="lightgray" stroke="black" points="24,-162.89 0,-162.89 0,-144.89 24,-144.89 24,-162.89"/>
<text text-anchor="middle" x="12" y="-151.69" font-family="Times New Roman,serif" font-size="9.00">&#45;9</text>
</g>
<!-- &#45;9&#45;&gt;Accelerate/Brake -->
<g id="edge10" class="edge">
<title>&#45;9&#45;&gt;Accelerate/Brake</title>
<path fill="none" stroke="red" stroke-width="0.25" stroke-dasharray="1,5" d="M24.08,-145.25C42.82,-133.4 80,-109.87 111.6,-89.87"/>
<polygon fill="red" stroke="red" stroke-width="0.25" points="113.77,-92.64 120.35,-84.33 110.03,-86.72 113.77,-92.64"/>
</g>
<!-- &#45;10 -->
<g id="node10" class="node">
<title>&#45;10</title>
<polygon fill="lightgray" stroke="black" points="225.5,-162.89 196.5,-162.89 196.5,-144.89 225.5,-144.89 225.5,-162.89"/>
<text text-anchor="middle" x="211" y="-151.69" font-family="Times New Roman,serif" font-size="9.00">&#45;10</text>
</g>
<!-- &#45;10&#45;&gt;Accelerate/Brake -->
<g id="edge7" class="edge">
<title>&#45;10&#45;&gt;Accelerate/Brake</title>
<path fill="none" stroke="green" stroke-width="0.46" stroke-dasharray="1,5" d="M207.16,-144.59C203.74,-137.18 198.41,-125.62 192.69,-113.25"/>
<polygon fill="green" stroke="green" stroke-width="0.46" points="195.86,-111.76 188.49,-104.15 189.51,-114.7 195.86,-111.76"/>
</g>
<!-- &#45;10&#45;&gt;Right/Left -->
<g id="edge11" class="edge">
<title>&#45;10&#45;&gt;Right/Left</title>
<path fill="none" stroke="green" stroke-width="0.3" stroke-dasharray="1,5" d="M216.54,-144.59C223.94,-133.49 237.56,-113.08 249.89,-94.59"/>
<polygon fill="green" stroke="green" stroke-width="0.3" points="252.8,-96.53 255.44,-86.27 246.98,-92.64 252.8,-96.53"/>
</g>
</g>
</svg>
